<svg width="531pt" height="319pt" viewBox="0.00 0.00 531.00 319.00" xmlns="http://www.w3.org/2000/svg" xmlns:xlink="http://www.w3.org/1999/xlink">
<g id="graph0" class="graph" transform="scale(1 1) rotate(0) translate(4 315.18)">
<title>BusinessValue</title>
<polygon fill="white" stroke="none" points="-4,4 -4,-315.18 527,-315.18 527,4 -4,4"/>
<g id="clust1" class="cluster">
<title>cluster_solution</title>
<polygon fill="#e6f4ea" stroke="#34a853" points="8,-104.32 8,-191.52 515,-191.52 515,-104.32 8,-104.32"/>
<text xml:space="preserve" text-anchor="middle" x="261.5" y="-175.82" font-family="Times,serif" font-size="13.00">Наше решение</text>
</g>
<!-- problem -->
<g id="node1" class="node">
<title>problem</title>
<polygon fill="#ffebee" stroke="black" points="355.76,-259.66 355.76,-289.84 306.11,-311.18 235.89,-311.18 186.24,-289.84 186.24,-259.66 235.89,-238.32 306.11,-238.32 355.76,-259.66"/>
<text xml:space="preserve" text-anchor="middle" x="271" y="-284.65" font-family="Arial" font-size="11.00">Проблема:</text>
<text xml:space="preserve" text-anchor="middle" x="271" y="-271.45" font-family="Arial" font-size="11.00">Одиночный сервер</text>
<text xml:space="preserve" text-anchor="middle" x="271" y="-258.25" font-family="Arial" font-size="11.00">= точка отказа</text>
</g>
<!-- ha -->
<g id="node2" class="node">
<title>ha</title>
<polygon fill="#a5d6a7" stroke="black" points="142.01,-154.12 15.99,-154.12 15.99,-118.12 142.01,-118.12 142.01,-154.12"/>
<text xml:space="preserve" text-anchor="middle" x="79" y="-139.42" font-family="Arial" font-size="11.00">High Availability</text>
<text xml:space="preserve" text-anchor="middle" x="79" y="-126.22" font-family="Arial" font-size="11.00">Отказоустойчивость</text>
</g>
<!-- problem&#45;&gt;ha -->
<g id="edge1" class="edge">
<title>problem-&gt;ha</title>
<path fill="none" stroke="black" stroke-width="2" d="M193.3,-256.29C193.3,-219.81 193.3,-142 193.3,-142 193.3,-142 155.53,-142 155.53,-142"/>
<polygon fill="black" stroke="black" stroke-width="2" points="155.53,-138.5 145.53,-142 155.53,-145.5 155.53,-138.5"/>
<text xml:space="preserve" text-anchor="middle" x="143.5" y="-203.72" font-family="Times,serif" font-size="14.00">требует</text>
</g>
<!-- lb -->
<g id="node3" class="node">
<title>lb</title>
<polygon fill="#a5d6a7" stroke="black" points="341.65,-154.12 200.35,-154.12 200.35,-118.12 341.65,-118.12 341.65,-154.12"/>
<text xml:space="preserve" text-anchor="middle" x="271" y="-139.42" font-family="Arial" font-size="11.00">Load Balancing</text>
<text xml:space="preserve" text-anchor="middle" x="271" y="-126.22" font-family="Arial" font-size="11.00">Балансировка нагрузки</text>
</g>
<!-- problem&#45;&gt;lb -->
<g id="edge2" class="edge">
<title>problem-&gt;lb</title>
<path fill="none" stroke="black" d="M271,-237.96C271,-237.96 271,-165.91 271,-165.91"/>
<polygon fill="black" stroke="black" points="274.5,-165.91 271,-155.91 267.5,-165.91 274.5,-165.91"/>
<text xml:space="preserve" text-anchor="middle" x="295.5" y="-203.72" font-family="Times,serif" font-size="14.00">требует</text>
</g>
<!-- scale -->
<g id="node4" class="node">
<title>scale</title>
<polygon fill="#a5d6a7" stroke="black" points="506.84,-159.92 399.16,-159.92 399.16,-112.32 506.84,-112.32 506.84,-159.92"/>
<text xml:space="preserve" text-anchor="middle" x="453" y="-146.02" font-family="Arial" font-size="11.00">Horizontal Scaling</text>
<text xml:space="preserve" text-anchor="middle" x="453" y="-132.82" font-family="Arial" font-size="11.00">Горизонтальное</text>
<text xml:space="preserve" text-anchor="middle" x="453" y="-119.62" font-family="Arial" font-size="11.00">масштабирование</text>
</g>
<!-- problem&#45;&gt;scale -->
<g id="edge3" class="edge">
<title>problem-&gt;scale</title>
<path fill="none" stroke="black" d="M348.7,-256.29C348.7,-219.81 348.7,-142 348.7,-142 348.7,-142 387.2,-142 387.2,-142"/>
<polygon fill="black" stroke="black" points="387.2,-145.5 397.2,-142 387.2,-138.5 387.2,-145.5"/>
<text xml:space="preserve" text-anchor="middle" x="442.5" y="-203.72" font-family="Times,serif" font-size="14.00">требует</text>
</g>
<!-- result -->
<g id="node5" class="node">
<title>result</title>
<ellipse fill="#e8f0fe" stroke="black" cx="271" cy="-33.66" rx="104.24" ry="33.66"/>
<text xml:space="preserve" text-anchor="middle" x="271" y="-43.56" font-family="Arial" font-size="11.00">Результат:</text>
<text xml:space="preserve" text-anchor="middle" x="271" y="-30.36" font-family="Arial" font-size="11.00">Доступность 99.9%+</text>
<text xml:space="preserve" text-anchor="middle" x="271" y="-17.16" font-family="Arial" font-size="11.00">Нет единой точки отказа</text>
</g>
<!-- ha&#45;&gt;result -->
<g id="edge4" class="edge">
<title>ha-&gt;result</title>
<path fill="none" stroke="black" d="M142.4,-130C161.02,-130 176.5,-130 176.5,-130 176.5,-130 176.5,-59.8 176.5,-59.8"/>
<polygon fill="black" stroke="black" points="180,-59.8 176.5,-49.8 173,-59.8 180,-59.8"/>
</g>
<!-- lb&#45;&gt;result -->
<g id="edge5" class="edge">
<title>lb-&gt;result</title>
<path fill="none" stroke="black" d="M271,-117.8C271,-117.8 271,-79.07 271,-79.07"/>
<polygon fill="black" stroke="black" points="274.5,-79.07 271,-69.07 267.5,-79.07 274.5,-79.07"/>
</g>
<!-- scale&#45;&gt;result -->
<g id="edge6" class="edge">
<title>scale-&gt;result</title>
<path fill="none" stroke="black" d="M399.08,-130C381.07,-130 365.5,-130 365.5,-130 365.5,-130 365.5,-59.8 365.5,-59.8"/>
<polygon fill="black" stroke="black" points="369,-59.8 365.5,-49.8 362,-59.8 369,-59.8"/>
</g>
</g>
</svg>