<svg width="334pt" height="1348pt" viewBox="0.00 0.00 334.00 1348.00" xmlns="http://www.w3.org/2000/svg" xmlns:xlink="http://www.w3.org/1999/xlink">
<g id="graph0" class="graph" transform="scale(1 1) rotate(0) translate(4 1343.83)">
<title>Challenges</title>
<polygon fill="white" stroke="none" points="-4,4 -4,-1343.83 330.06,-1343.83 330.06,4 -4,4"/>
<text xml:space="preserve" text-anchor="middle" x="163.03" y="-1319.63" font-family="Arial" font-size="18.00">Пройденные трудности и их решения</text>
<!-- start -->
<g id="node1" class="node">
<title>start</title>
<ellipse fill="#e8f0fe" stroke="black" cx="163.03" cy="-1292.23" rx="54.73" ry="18"/>
<text xml:space="preserve" text-anchor="middle" x="163.03" y="-1289.23" font-family="Arial" font-size="10.00">Начало проекта</text>
</g>
<!-- problem1 -->
<g id="node2" class="node">
<title>problem1</title>
<polygon fill="#ffcdd2" stroke="black" points="236.32,-1238.23 89.74,-1238.23 89.74,-1170.23 236.32,-1170.23 236.32,-1238.23"/>
<text xml:space="preserve" text-anchor="middle" x="163.03" y="-1225.23" font-family="Arial" font-size="10.00">Проблема 1: WSL2</text>
<text xml:space="preserve" text-anchor="middle" x="163.03" y="-1213.23" font-family="Arial" font-size="10.00">DHCP не работает</text>
<text xml:space="preserve" text-anchor="middle" x="163.03" y="-1201.23" font-family="Arial" font-size="10.00">Сеть нестабильна</text>
<text xml:space="preserve" text-anchor="middle" x="163.03" y="-1189.23" font-family="Arial" font-size="10.00">AppArmor блокирует QEMU</text>
<text xml:space="preserve" text-anchor="middle" x="163.03" y="-1177.23" font-family="Arial" font-size="10.00">5 часов попыток</text>
</g>
<!-- start&#45;&gt;problem1 -->
<g id="edge1" class="edge">
<title>start-&gt;problem1</title>
<path fill="none" stroke="black" d="M163.03,-1273.99C163.03,-1273.99 163.03,-1249.95 163.03,-1249.95"/>
<polygon fill="black" stroke="black" points="166.53,-1249.95 163.03,-1239.95 159.53,-1249.95 166.53,-1249.95"/>
</g>
<!-- solution1 -->
<g id="node3" class="node">
<title>solution1</title>
<polygon fill="#c8e6c9" stroke="black" points="215.48,-1134.23 110.58,-1134.23 110.58,-1078.23 215.48,-1078.23 215.48,-1134.23"/>
<text xml:space="preserve" text-anchor="middle" x="163.03" y="-1121.23" font-family="Arial" font-size="10.00">Решение 1:</text>
<text xml:space="preserve" text-anchor="middle" x="163.03" y="-1109.23" font-family="Arial" font-size="10.00">Переход на чистую</text>
<text xml:space="preserve" text-anchor="middle" x="163.03" y="-1097.23" font-family="Arial" font-size="10.00">Ubuntu 24.04</text>
<text xml:space="preserve" text-anchor="middle" x="163.03" y="-1085.23" font-family="Arial" font-size="10.00">Родной KVM</text>
</g>
<!-- problem1&#45;&gt;solution1 -->
<g id="edge2" class="edge">
<title>problem1-&gt;solution1</title>
<path fill="none" stroke="black" d="M163.03,-1169.95C163.03,-1169.95 163.03,-1146 163.03,-1146"/>
<polygon fill="black" stroke="black" points="166.53,-1146 163.03,-1136 159.53,-1146 166.53,-1146"/>
</g>
<!-- problem2 -->
<g id="node4" class="node">
<title>problem2</title>
<polygon fill="#ffcdd2" stroke="black" points="229.93,-1042.23 96.13,-1042.23 96.13,-986.23 229.93,-986.23 229.93,-1042.23"/>
<text xml:space="preserve" text-anchor="middle" x="163.03" y="-1029.23" font-family="Arial" font-size="10.00">Проблема 2: Terraform init</text>
<text xml:space="preserve" text-anchor="middle" x="163.03" y="-1017.23" font-family="Arial" font-size="10.00">registry.terraform.io</text>
<text xml:space="preserve" text-anchor="middle" x="163.03" y="-1005.23" font-family="Arial" font-size="10.00">недоступен</text>
<text xml:space="preserve" text-anchor="middle" x="163.03" y="-993.23" font-family="Arial" font-size="10.00">(сетевые ограничения)</text>
</g>
<!-- solution1&#45;&gt;problem2 -->
<g id="edge3" class="edge">
<title>solution1-&gt;problem2</title>
<path fill="none" stroke="black" d="M163.03,-1077.87C163.03,-1077.87 163.03,-1054.16 163.03,-1054.16"/>
<polygon fill="black" stroke="black" points="166.53,-1054.16 163.03,-1044.16 159.53,-1054.16 166.53,-1054.16"/>
</g>
<!-- solution2 -->
<g id="node5" class="node">
<title>solution2</title>
<polygon fill="#c8e6c9" stroke="black" points="230.76,-950.23 95.3,-950.23 95.3,-894.23 230.76,-894.23 230.76,-950.23"/>
<text xml:space="preserve" text-anchor="middle" x="163.03" y="-937.23" font-family="Arial" font-size="10.00">Решение 2:</text>
<text xml:space="preserve" text-anchor="middle" x="163.03" y="-925.23" font-family="Arial" font-size="10.00">Скачивание провайдеров</text>
<text xml:space="preserve" text-anchor="middle" x="163.03" y="-913.23" font-family="Arial" font-size="10.00">вручную и установка</text>
<text xml:space="preserve" text-anchor="middle" x="163.03" y="-901.23" font-family="Arial" font-size="10.00">в ~/.terraform.d/plugins</text>
</g>
<!-- problem2&#45;&gt;solution2 -->
<g id="edge4" class="edge">
<title>problem2-&gt;solution2</title>
<path fill="none" stroke="black" d="M163.03,-985.87C163.03,-985.87 163.03,-962.16 163.03,-962.16"/>
<polygon fill="black" stroke="black" points="166.53,-962.16 163.03,-952.16 159.53,-962.16 166.53,-962.16"/>
</g>
<!-- problem3 -->
<g id="node6" class="node">
<title>problem3</title>
<polygon fill="#ffcdd2" stroke="black" points="234.1,-858.23 91.96,-858.23 91.96,-790.23 234.1,-790.23 234.1,-858.23"/>
<text xml:space="preserve" text-anchor="middle" x="163.03" y="-845.23" font-family="Arial" font-size="10.00">Проблема 3: Доступ к libvirt</text>
<text xml:space="preserve" text-anchor="middle" x="163.03" y="-833.23" font-family="Arial" font-size="10.00">Permission denied</text>
<text xml:space="preserve" text-anchor="middle" x="163.03" y="-821.23" font-family="Arial" font-size="10.00">на /var/run/libvirt/libvirt-sock</text>
<text xml:space="preserve" text-anchor="middle" x="163.03" y="-809.23" font-family="Arial" font-size="10.00">Пользователь в группе,</text>
<text xml:space="preserve" text-anchor="middle" x="163.03" y="-797.23" font-family="Arial" font-size="10.00">но права не применились</text>
</g>
<!-- solution2&#45;&gt;problem3 -->
<g id="edge5" class="edge">
<title>solution2-&gt;problem3</title>
<path fill="none" stroke="black" d="M163.03,-893.88C163.03,-893.88 163.03,-869.92 163.03,-869.92"/>
<polygon fill="black" stroke="black" points="166.53,-869.92 163.03,-859.92 159.53,-869.92 166.53,-869.92"/>
</g>
<!-- solution3 -->
<g id="node7" class="node">
<title>solution3</title>
<polygon fill="#c8e6c9" stroke="black" points="225.21,-754.23 100.85,-754.23 100.85,-698.23 225.21,-698.23 225.21,-754.23"/>
<text xml:space="preserve" text-anchor="middle" x="163.03" y="-741.23" font-family="Arial" font-size="10.00">Решение 3:</text>
<text xml:space="preserve" text-anchor="middle" x="163.03" y="-729.23" font-family="Arial" font-size="10.00">chmod 666 на сокет</text>
<text xml:space="preserve" text-anchor="middle" x="163.03" y="-717.23" font-family="Arial" font-size="10.00">перезапуск libvirtd</text>
<text xml:space="preserve" text-anchor="middle" x="163.03" y="-705.23" font-family="Arial" font-size="10.00">перезагрузка системы</text>
</g>
<!-- problem3&#45;&gt;solution3 -->
<g id="edge6" class="edge">
<title>problem3-&gt;solution3</title>
<path fill="none" stroke="black" d="M163.03,-789.95C163.03,-789.95 163.03,-766 163.03,-766"/>
<polygon fill="black" stroke="black" points="166.53,-766 163.03,-756 159.53,-766 166.53,-766"/>
</g>
<!-- problem4 -->
<g id="node8" class="node">
<title>problem4</title>
<polygon fill="#ffcdd2" stroke="black" points="231.61,-662.23 94.45,-662.23 94.45,-606.23 231.61,-606.23 231.61,-662.23"/>
<text xml:space="preserve" text-anchor="middle" x="163.03" y="-649.23" font-family="Arial" font-size="10.00">Проблема 4: AppArmor</text>
<text xml:space="preserve" text-anchor="middle" x="163.03" y="-637.23" font-family="Arial" font-size="10.00">Блокирует QEMU доступ</text>
<text xml:space="preserve" text-anchor="middle" x="163.03" y="-625.23" font-family="Arial" font-size="10.00">к /var/lib/libvirt/images</text>
<text xml:space="preserve" text-anchor="middle" x="163.03" y="-613.23" font-family="Arial" font-size="10.00">Ошибка: Permission denied</text>
</g>
<!-- solution3&#45;&gt;problem4 -->
<g id="edge7" class="edge">
<title>solution3-&gt;problem4</title>
<path fill="none" stroke="black" d="M163.03,-697.87C163.03,-697.87 163.03,-674.16 163.03,-674.16"/>
<polygon fill="black" stroke="black" points="166.53,-674.16 163.03,-664.16 159.53,-674.16 166.53,-674.16"/>
</g>
<!-- solution4 -->
<g id="node9" class="node">
<title>solution4</title>
<polygon fill="#c8e6c9" stroke="black" points="227.99,-570.23 98.07,-570.23 98.07,-514.23 227.99,-514.23 227.99,-570.23"/>
<text xml:space="preserve" text-anchor="middle" x="163.03" y="-557.23" font-family="Arial" font-size="10.00">Решение 4:</text>
<text xml:space="preserve" text-anchor="middle" x="163.03" y="-545.23" font-family="Arial" font-size="10.00">systemctl mask apparmor</text>
<text xml:space="preserve" text-anchor="middle" x="163.03" y="-533.23" font-family="Arial" font-size="10.00">security_driver = none</text>
<text xml:space="preserve" text-anchor="middle" x="163.03" y="-521.23" font-family="Arial" font-size="10.00">chown libvirt-qemu:kvm</text>
</g>
<!-- problem4&#45;&gt;solution4 -->
<g id="edge8" class="edge">
<title>problem4-&gt;solution4</title>
<path fill="none" stroke="black" d="M163.03,-605.87C163.03,-605.87 163.03,-582.16 163.03,-582.16"/>
<polygon fill="black" stroke="black" points="166.53,-582.16 163.03,-572.16 159.53,-582.16 166.53,-582.16"/>
</g>
<!-- problem5 -->
<g id="node10" class="node">
<title>problem5</title>
<polygon fill="#ffcdd2" stroke="black" points="249.1,-478.23 76.96,-478.23 76.96,-422.23 249.1,-422.23 249.1,-478.23"/>
<text xml:space="preserve" text-anchor="middle" x="163.03" y="-465.23" font-family="Arial" font-size="10.00">Проблема 5: uWSGI + Nginx</text>
<text xml:space="preserve" text-anchor="middle" x="163.03" y="-453.23" font-family="Arial" font-size="10.00">502 Bad Gateway</text>
<text xml:space="preserve" text-anchor="middle" x="163.03" y="-441.23" font-family="Arial" font-size="10.00">uwsgi использует свой протокол</text>
<text xml:space="preserve" text-anchor="middle" x="163.03" y="-429.23" font-family="Arial" font-size="10.00">а не HTTP</text>
</g>
<!-- solution4&#45;&gt;problem5 -->
<g id="edge9" class="edge">
<title>solution4-&gt;problem5</title>
<path fill="none" stroke="black" d="M163.03,-513.87C163.03,-513.87 163.03,-490.16 163.03,-490.16"/>
<polygon fill="black" stroke="black" points="166.53,-490.16 163.03,-480.16 159.53,-490.16 166.53,-490.16"/>
</g>
<!-- solution5 -->
<g id="node11" class="node">
<title>solution5</title>
<polygon fill="#c8e6c9" stroke="black" points="213.7,-386.23 112.36,-386.23 112.36,-330.23 213.7,-330.23 213.7,-386.23"/>
<text xml:space="preserve" text-anchor="middle" x="163.03" y="-373.23" font-family="Arial" font-size="10.00">Решение 5:</text>
<text xml:space="preserve" text-anchor="middle" x="163.03" y="-361.23" font-family="Arial" font-size="10.00">socket = :8000</text>
<text xml:space="preserve" text-anchor="middle" x="163.03" y="-349.23" font-family="Arial" font-size="10.00">заменён на</text>
<text xml:space="preserve" text-anchor="middle" x="163.03" y="-337.23" font-family="Arial" font-size="10.00">http-socket = :8000</text>
</g>
<!-- problem5&#45;&gt;solution5 -->
<g id="edge10" class="edge">
<title>problem5-&gt;solution5</title>
<path fill="none" stroke="black" d="M163.03,-421.87C163.03,-421.87 163.03,-398.16 163.03,-398.16"/>
<polygon fill="black" stroke="black" points="166.53,-398.16 163.03,-388.16 159.53,-398.16 166.53,-398.16"/>
</g>
<!-- problem6 -->
<g id="node12" class="node">
<title>problem6</title>
<polygon fill="#ffcdd2" stroke="black" points="243.27,-294.23 82.79,-294.23 82.79,-214.23 243.27,-214.23 243.27,-294.23"/>
<text xml:space="preserve" text-anchor="middle" x="163.03" y="-281.23" font-family="Arial" font-size="10.00">Проблема 6: GFS2</text>
<text xml:space="preserve" text-anchor="middle" x="163.03" y="-269.23" font-family="Arial" font-size="10.00">• Нет модуля в облачном ядре</text>
<text xml:space="preserve" text-anchor="middle" x="163.03" y="-257.23" font-family="Arial" font-size="10.00">• DLM не запускается</text>
<text xml:space="preserve" text-anchor="middle" x="163.03" y="-245.23" font-family="Arial" font-size="10.00">• mkfs.gfs2 зависает</text>
<text xml:space="preserve" text-anchor="middle" x="163.03" y="-233.23" font-family="Arial" font-size="10.00">• Разные имена устройств</text>
<text xml:space="preserve" text-anchor="middle" x="163.03" y="-221.23" font-family="Arial" font-size="10.00">• Segmentation fault</text>
</g>
<!-- solution5&#45;&gt;problem6 -->
<g id="edge11" class="edge">
<title>solution5-&gt;problem6</title>
<path fill="none" stroke="black" d="M163.03,-329.81C163.03,-329.81 163.03,-306.21 163.03,-306.21"/>
<polygon fill="black" stroke="black" points="166.53,-306.21 163.03,-296.21 159.53,-306.21 166.53,-306.21"/>
</g>
<!-- solution6 -->
<g id="node13" class="node">
<title>solution6</title>
<polygon fill="#c8e6c9" stroke="black" points="248.82,-178.23 77.24,-178.23 77.24,-98.23 248.82,-98.23 248.82,-178.23"/>
<text xml:space="preserve" text-anchor="middle" x="163.03" y="-165.23" font-family="Arial" font-size="10.00">Решение 6:</text>
<text xml:space="preserve" text-anchor="middle" x="163.03" y="-153.23" font-family="Arial" font-size="10.00">• linux-image-generic</text>
<text xml:space="preserve" text-anchor="middle" x="163.03" y="-141.23" font-family="Arial" font-size="10.00">• systemctl start dlm</text>
<text xml:space="preserve" text-anchor="middle" x="163.03" y="-129.23" font-family="Arial" font-size="10.00">• Запуск DLM перед mkfs</text>
<text xml:space="preserve" text-anchor="middle" x="163.03" y="-117.23" font-family="Arial" font-size="10.00">• /dev/disk/by-path/</text>
<text xml:space="preserve" text-anchor="middle" x="163.03" y="-105.23" font-family="Arial" font-size="10.00">• Перезагрузка и пересоздание</text>
</g>
<!-- problem6&#45;&gt;solution6 -->
<g id="edge12" class="edge">
<title>problem6-&gt;solution6</title>
<path fill="none" stroke="black" d="M163.03,-213.98C163.03,-213.98 163.03,-189.91 163.03,-189.91"/>
<polygon fill="black" stroke="black" points="166.53,-189.91 163.03,-179.91 159.53,-189.91 166.53,-189.91"/>
</g>
<!-- success -->
<g id="node14" class="node">
<title>success</title>
<ellipse fill="#a5d6a7" stroke="black" stroke-width="2" cx="163.03" cy="-31.11" rx="101.68" ry="31.11"/>
<text xml:space="preserve" text-anchor="middle" x="163.03" y="-40.11" font-family="Arial" font-size="10.00">Проект завершён</text>
<text xml:space="preserve" text-anchor="middle" x="163.03" y="-28.11" font-family="Arial" font-size="10.00">Все требования выполнены</text>
<text xml:space="preserve" text-anchor="middle" x="163.03" y="-16.11" font-family="Arial" font-size="10.00">12 скриншотов готовы</text>
</g>
<!-- solution6&#45;&gt;success -->
<g id="edge13" class="edge">
<title>solution6-&gt;success</title>
<path fill="none" stroke="black" d="M163.03,-97.73C163.03,-97.73 163.03,-74.5 163.03,-74.5"/>
<polygon fill="black" stroke="black" points="166.53,-74.5 163.03,-64.5 159.53,-74.5 166.53,-74.5"/>
</g>
</g>
</svg>