<svg width="669pt" height="1057pt" viewBox="0.00 0.00 669.00 1057.00" xmlns="http://www.w3.org/2000/svg" xmlns:xlink="http://www.w3.org/1999/xlink">
<g id="graph0" class="graph" transform="scale(1 1) rotate(0) translate(4 1052.6)">
<title>GFS2Detailed</title>
<polygon fill="white" stroke="none" points="-4,4 -4,-1052.6 665,-1052.6 665,4 -4,4"/>
<text xml:space="preserve" text-anchor="middle" x="330.5" y="-1028.4" font-family="Arial" font-size="18.00">GFS2 — Кластерная файловая система</text>
<g id="clust1" class="cluster">
<title>cluster_layer_physical</title>
<polygon fill="#e8f0fe" stroke="black" points="199,-846.4 199,-1011 341,-1011 341,-846.4 199,-846.4"/>
<text xml:space="preserve" text-anchor="middle" x="270" y="-995.3" font-family="Arial" font-size="13.00">Физический уровень</text>
</g>
<g id="clust2" class="cluster">
<title>cluster_layer_network</title>
<polygon fill="#e0e0e0" stroke="black" points="144,-593.4 144,-827.4 397,-827.4 397,-593.4 144,-593.4"/>
<text xml:space="preserve" text-anchor="middle" x="270.5" y="-811.7" font-family="Arial" font-size="13.00">Сетевой уровень (iSCSI)</text>
</g>
<g id="clust3" class="cluster">
<title>cluster_initiators</title>
<polygon fill="#eeeeee" stroke="black" points="167,-601.4 167,-685 358,-685 358,-601.4 167,-601.4"/>
<text xml:space="preserve" text-anchor="middle" x="262.5" y="-669.3" font-family="Arial" font-size="13.00">iSCSI Initiators</text>
</g>
<g id="clust4" class="cluster">
<title>cluster_layer_lock</title>
<polygon fill="#fff3e0" stroke="black" points="89,-284.2 89,-543.8 271,-543.8 271,-284.2 89,-284.2"/>
<text xml:space="preserve" text-anchor="middle" x="180" y="-528.1" font-family="Arial" font-size="13.00">Уровень блокировок (DLM)</text>
</g>
<g id="clust5" class="cluster">
<title>cluster_layer_fs</title>
<polygon fill="#e6f4ea" stroke="black" points="95,-8 95,-232.6 365,-232.6 365,-8 95,-8"/>
<text xml:space="preserve" text-anchor="middle" x="230" y="-216.9" font-family="Arial" font-size="13.00">Уровень файловой системы (GFS2)</text>
</g>
<g id="clust6" class="cluster">
<title>cluster_layer_usage</title>
<polygon fill="#f3e5f5" stroke="black" points="373,-137 373,-379.8 653,-379.8 653,-137 373,-137"/>
<text xml:space="preserve" text-anchor="middle" x="513" y="-364.1" font-family="Arial" font-size="13.00">Использование</text>
</g>
<!-- disk -->
<g id="node1" class="node">
<title>disk</title>
<path fill="#bbdefb" stroke="black" d="M323.85,-975.4C323.85,-977.61 299.71,-979.4 270,-979.4 240.29,-979.4 216.15,-977.61 216.15,-975.4 216.15,-975.4 216.15,-939.4 216.15,-939.4 216.15,-937.19 240.29,-935.4 270,-935.4 299.71,-935.4 323.85,-937.19 323.85,-939.4 323.85,-939.4 323.85,-975.4 323.85,-975.4"/>
<path fill="none" stroke="black" d="M323.85,-975.4C323.85,-973.19 299.71,-971.4 270,-971.4 240.29,-971.4 216.15,-973.19 216.15,-975.4"/>
<text xml:space="preserve" text-anchor="middle" x="270" y="-960.4" font-family="Arial" font-size="10.00">Диск /dev/vdb (5 ГБ)</text>
<text xml:space="preserve" text-anchor="middle" x="270" y="-948.4" font-family="Arial" font-size="10.00">на iscsi-target</text>
</g>
<!-- lvm -->
<g id="node2" class="node">
<title>lvm</title>
<polygon fill="#bbdefb" stroke="black" points="320.23,-898.4 219.77,-898.4 219.77,-854.4 320.23,-854.4 320.23,-898.4"/>
<text xml:space="preserve" text-anchor="middle" x="270" y="-885.4" font-family="Arial" font-size="10.00">LVM</text>
<text xml:space="preserve" text-anchor="middle" x="270" y="-873.4" font-family="Arial" font-size="10.00">vg_iscsi</text>
<text xml:space="preserve" text-anchor="middle" x="270" y="-861.4" font-family="Arial" font-size="10.00">└─ lv_static (4 ГБ)</text>
</g>
<!-- disk&#45;&gt;lvm -->
<g id="edge2" class="edge">
<title>disk-&gt;lvm</title>
<path fill="none" stroke="black" d="M270,-935.27C270,-935.27 270,-910.3 270,-910.3"/>
<polygon fill="black" stroke="black" points="273.5,-910.3 270,-900.3 266.5,-910.3 273.5,-910.3"/>
</g>
<!-- target -->
<g id="node3" class="node">
<title>target</title>
<polygon fill="#bdbdbd" stroke="black" points="356.66,-795.8 183.34,-795.8 183.34,-727.8 356.66,-727.8 356.66,-795.8"/>
<text xml:space="preserve" text-anchor="middle" x="270" y="-782.8" font-family="Arial" font-size="10.00">iSCSI Target (tgt)</text>
<text xml:space="preserve" text-anchor="middle" x="270" y="-770.8" font-family="Arial" font-size="10.00">IQN: iqn.2026-06.local.gfs2:storage</text>
<text xml:space="preserve" text-anchor="middle" x="270" y="-758.8" font-family="Arial" font-size="10.00">Порт: TCP/3260</text>
<text xml:space="preserve" text-anchor="middle" x="270" y="-746.8" font-family="Arial" font-size="10.00">Аутентификация: CHAP</text>
<text xml:space="preserve" text-anchor="middle" x="270" y="-734.8" font-family="Arial" font-size="10.00">(iscsi-user / iscsi-pass)</text>
</g>
<!-- lvm&#45;&gt;target -->
<g id="edge3" class="edge">
<title>lvm-&gt;target</title>
<path fill="none" stroke="black" d="M270,-854.03C270,-854.03 270,-807.81 270,-807.81"/>
<polygon fill="black" stroke="black" points="273.5,-807.81 270,-797.81 266.5,-807.81 273.5,-807.81"/>
</g>
<!-- init1 -->
<g id="node4" class="node">
<title>init1</title>
<polygon fill="#e0e0e0" stroke="black" points="237.35,-653.4 174.65,-653.4 174.65,-609.4 237.35,-609.4 237.35,-653.4"/>
<text xml:space="preserve" text-anchor="middle" x="206" y="-640.4" font-family="Arial" font-size="10.00">backend-1</text>
<text xml:space="preserve" text-anchor="middle" x="206" y="-628.4" font-family="Arial" font-size="10.00">iscsiadm</text>
<text xml:space="preserve" text-anchor="middle" x="206" y="-616.4" font-family="Arial" font-size="10.00">/dev/sda</text>
</g>
<!-- target&#45;&gt;init1 -->
<g id="edge4" class="edge">
<title>target-&gt;init1</title>
<path fill="none" stroke="black" d="M210.35,-727.54C210.35,-727.54 210.35,-665.08 210.35,-665.08"/>
<polygon fill="black" stroke="black" points="213.85,-665.08 210.35,-655.08 206.85,-665.08 213.85,-665.08"/>
<text xml:space="preserve" text-anchor="middle" x="234.87" y="-697.2" font-family="Times,serif" font-size="14.00">iSCSI LUN</text>
</g>
<!-- init2 -->
<g id="node5" class="node">
<title>init2</title>
<polygon fill="#e0e0e0" stroke="black" points="350.35,-653.4 287.65,-653.4 287.65,-609.4 350.35,-609.4 350.35,-653.4"/>
<text xml:space="preserve" text-anchor="middle" x="319" y="-640.4" font-family="Arial" font-size="10.00">backend-2</text>
<text xml:space="preserve" text-anchor="middle" x="319" y="-628.4" font-family="Arial" font-size="10.00">iscsiadm</text>
<text xml:space="preserve" text-anchor="middle" x="319" y="-616.4" font-family="Arial" font-size="10.00">/dev/sda</text>
</g>
<!-- target&#45;&gt;init2 -->
<g id="edge5" class="edge">
<title>target-&gt;init2</title>
<path fill="none" stroke="black" d="M319,-727.54C319,-727.54 319,-665.08 319,-665.08"/>
<polygon fill="black" stroke="black" points="322.5,-665.08 319,-655.08 315.5,-665.08 322.5,-665.08"/>
<text xml:space="preserve" text-anchor="middle" x="355.87" y="-697.2" font-family="Times,serif" font-size="14.00">iSCSI LUN</text>
</g>
<!-- dlm1 -->
<g id="node6" class="node">
<title>dlm1</title>
<polygon fill="#ffe0b2" stroke="black" points="232.73,-512.2 97.27,-512.2 97.27,-456.2 232.73,-456.2 232.73,-512.2"/>
<text xml:space="preserve" text-anchor="middle" x="165" y="-499.2" font-family="Arial" font-size="10.00">dlm_controld</text>
<text xml:space="preserve" text-anchor="middle" x="165" y="-487.2" font-family="Arial" font-size="10.00">на backend-1</text>
<text xml:space="preserve" text-anchor="middle" x="165" y="-475.2" font-family="Arial" font-size="10.00">Управляет блокировками</text>
<text xml:space="preserve" text-anchor="middle" x="165" y="-463.2" font-family="Arial" font-size="10.00">файлов и ресурсов</text>
</g>
<!-- init1&#45;&gt;dlm1 -->
<g id="edge6" class="edge">
<title>init1-&gt;dlm1</title>
<path fill="none" stroke="black" d="M203.69,-609.04C203.69,-609.04 203.69,-524.09 203.69,-524.09"/>
<polygon fill="black" stroke="black" points="207.19,-524.09 203.69,-514.09 200.19,-524.09 207.19,-524.09"/>
<text xml:space="preserve" text-anchor="middle" x="214.75" y="-572.8" font-family="Times,serif" font-size="14.00">доступ</text>
<text xml:space="preserve" text-anchor="middle" x="214.75" y="-556" font-family="Times,serif" font-size="14.00">к диску</text>
</g>
<!-- dlm2 -->
<g id="node7" class="node">
<title>dlm2</title>
<polygon fill="#ffe0b2" stroke="black" points="262.73,-348.2 127.27,-348.2 127.27,-292.2 262.73,-292.2 262.73,-348.2"/>
<text xml:space="preserve" text-anchor="middle" x="195" y="-335.2" font-family="Arial" font-size="10.00">dlm_controld</text>
<text xml:space="preserve" text-anchor="middle" x="195" y="-323.2" font-family="Arial" font-size="10.00">на backend-2</text>
<text xml:space="preserve" text-anchor="middle" x="195" y="-311.2" font-family="Arial" font-size="10.00">Управляет блокировками</text>
<text xml:space="preserve" text-anchor="middle" x="195" y="-299.2" font-family="Arial" font-size="10.00">файлов и ресурсов</text>
</g>
<!-- init2&#45;&gt;dlm2 -->
<g id="edge7" class="edge">
<title>init2-&gt;dlm2</title>
<path fill="none" stroke="black" d="M287.35,-631C269.22,-631 250.04,-631 250.04,-631 250.04,-631 250.04,-360.12 250.04,-360.12"/>
<polygon fill="black" stroke="black" points="253.54,-360.12 250.04,-350.12 246.54,-360.12 253.54,-360.12"/>
<text xml:space="preserve" text-anchor="middle" x="355.75" y="-488.4" font-family="Times,serif" font-size="14.00">доступ</text>
<text xml:space="preserve" text-anchor="middle" x="355.75" y="-471.6" font-family="Times,serif" font-size="14.00">к диску</text>
</g>
<!-- dlm1&#45;&gt;dlm2 -->
<g id="edge1" class="edge">
<title>dlm1-&gt;dlm2</title>
<path fill="none" stroke="#fb8c00" stroke-width="2" d="M180,-442.98C180,-442.98 180,-361.6 180,-361.6"/>
<polygon fill="#fb8c00" stroke="#fb8c00" stroke-width="2" points="176.5,-442.98 180,-452.98 183.5,-442.98 176.5,-442.98"/>
<polygon fill="#fb8c00" stroke="#fb8c00" stroke-width="2" points="183.5,-361.6 180,-351.6 176.5,-361.6 183.5,-361.6"/>
<text xml:space="preserve" text-anchor="middle" x="204.75" y="-425.6" font-family="Times,serif" font-size="14.00">Обмен сообщениями</text>
<text xml:space="preserve" text-anchor="middle" x="204.75" y="-408.8" font-family="Times,serif" font-size="14.00">о блокировках</text>
<text xml:space="preserve" text-anchor="middle" x="204.75" y="-392" font-family="Times,serif" font-size="14.00">через сеть</text>
</g>
<!-- mount1 -->
<g id="node9" class="node">
<title>mount1</title>
<polygon fill="#a5d6a7" stroke="black" points="356.94,-201 255.06,-201 255.06,-133 356.94,-133 356.94,-201"/>
<text xml:space="preserve" text-anchor="middle" x="306" y="-188" font-family="Arial" font-size="10.00">/mnt/gfs2_static</text>
<text xml:space="preserve" text-anchor="middle" x="306" y="-176" font-family="Arial" font-size="10.00">на backend-1</text>
<text xml:space="preserve" text-anchor="middle" x="306" y="-164" font-family="Arial" font-size="10.00">mount -t gfs2 -o</text>
<text xml:space="preserve" text-anchor="middle" x="306" y="-152" font-family="Arial" font-size="10.00">lockproto=lock_dlm</text>
<text xml:space="preserve" text-anchor="middle" x="306" y="-140" font-family="Arial" font-size="10.00">/dev/sda</text>
</g>
<!-- dlm1&#45;&gt;mount1 -->
<g id="edge8" class="edge">
<title>dlm1-&gt;mount1</title>
<path fill="none" stroke="black" d="M233.22,-484C255.76,-484 275.19,-484 275.19,-484 275.19,-484 275.19,-212.74 275.19,-212.74"/>
<polygon fill="black" stroke="black" points="278.69,-212.74 275.19,-202.74 271.69,-212.74 278.69,-212.74"/>
<text xml:space="preserve" text-anchor="middle" x="38.5" y="-324.4" font-family="Times,serif" font-size="14.00">координация</text>
<text xml:space="preserve" text-anchor="middle" x="38.5" y="-307.6" font-family="Times,serif" font-size="14.00">блокировок</text>
</g>
<!-- mount2 -->
<g id="node10" class="node">
<title>mount2</title>
<polygon fill="#a5d6a7" stroke="black" points="204.94,-201 103.06,-201 103.06,-133 204.94,-133 204.94,-201"/>
<text xml:space="preserve" text-anchor="middle" x="154" y="-188" font-family="Arial" font-size="10.00">/mnt/gfs2_static</text>
<text xml:space="preserve" text-anchor="middle" x="154" y="-176" font-family="Arial" font-size="10.00">на backend-2</text>
<text xml:space="preserve" text-anchor="middle" x="154" y="-164" font-family="Arial" font-size="10.00">mount -t gfs2 -o</text>
<text xml:space="preserve" text-anchor="middle" x="154" y="-152" font-family="Arial" font-size="10.00">lockproto=lock_dlm</text>
<text xml:space="preserve" text-anchor="middle" x="154" y="-140" font-family="Arial" font-size="10.00">/dev/sda</text>
</g>
<!-- dlm2&#45;&gt;mount2 -->
<g id="edge9" class="edge">
<title>dlm2-&gt;mount2</title>
<path fill="none" stroke="black" d="M153.16,-291.74C153.16,-291.74 153.16,-212.99 153.16,-212.99"/>
<polygon fill="black" stroke="black" points="156.66,-212.99 153.16,-202.99 149.66,-212.99 156.66,-212.99"/>
<text xml:space="preserve" text-anchor="middle" x="195.5" y="-261.6" font-family="Times,serif" font-size="14.00">координация</text>
<text xml:space="preserve" text-anchor="middle" x="195.5" y="-244.8" font-family="Times,serif" font-size="14.00">блокировок</text>
</g>
<!-- fs_params -->
<g id="node8" class="node">
<title>fs_params</title>
<polygon fill="#c8e6c9" stroke="black" points="299.81,-96 154.19,-96 154.19,-16 305.81,-16 305.81,-90 299.81,-96"/>
<polyline fill="none" stroke="black" points="299.81,-96 299.81,-90"/>
<polyline fill="none" stroke="black" points="305.81,-90 299.81,-90"/>
<text xml:space="preserve" text-anchor="middle" x="230" y="-83" font-family="Arial" font-size="10.00">Параметры GFS2:</text>
<text xml:space="preserve" text-anchor="middle" x="230" y="-71" font-family="Arial" font-size="10.00">• Lock protocol: lock_dlm</text>
<text xml:space="preserve" text-anchor="middle" x="230" y="-59" font-family="Arial" font-size="10.00">• Lock table: gfs2-cluster:gfs2</text>
<text xml:space="preserve" text-anchor="middle" x="230" y="-47" font-family="Arial" font-size="10.00">• 2 журнала</text>
<text xml:space="preserve" text-anchor="middle" x="230" y="-35" font-family="Arial" font-size="10.00">• Размер блока: 4 КБ</text>
<text xml:space="preserve" text-anchor="middle" x="230" y="-23" font-family="Arial" font-size="10.00">• UUID: f4cde126...</text>
</g>
<!-- mount1&#45;&gt;fs_params -->
<g id="edge10" class="edge">
<title>mount1-&gt;fs_params</title>
<path fill="none" stroke="black" d="M280.44,-132.79C280.44,-132.79 280.44,-107.64 280.44,-107.64"/>
<polygon fill="black" stroke="black" points="283.94,-107.64 280.44,-97.64 276.94,-107.64 283.94,-107.64"/>
</g>
<!-- static -->
<g id="node11" class="node">
<title>static</title>
<polygon fill="#e1bee7" stroke="black" points="495.24,-348.2 380.76,-348.2 380.76,-292.2 501.24,-292.2 501.24,-342.2 495.24,-348.2"/>
<polyline fill="none" stroke="black" points="495.24,-348.2 495.24,-342.2"/>
<polyline fill="none" stroke="black" points="501.24,-342.2 495.24,-342.2"/>
<text xml:space="preserve" text-anchor="middle" x="441" y="-335.2" font-family="Arial" font-size="10.00">/mnt/gfs2_static/static/</text>
<text xml:space="preserve" text-anchor="middle" x="441" y="-323.2" font-family="Arial" font-size="10.00">Общая папка для</text>
<text xml:space="preserve" text-anchor="middle" x="441" y="-311.2" font-family="Arial" font-size="10.00">статических файлов</text>
<text xml:space="preserve" text-anchor="middle" x="441" y="-299.2" font-family="Arial" font-size="10.00">Django STATIC_ROOT</text>
</g>
<!-- mount1&#45;&gt;static -->
<g id="edge12" class="edge">
<title>mount1-&gt;static</title>
<path fill="none" stroke="black" d="M357.15,-197C392.3,-197 432.65,-197 432.65,-197 432.65,-197 432.65,-280.42 432.65,-280.42"/>
<polygon fill="black" stroke="black" points="429.15,-280.42 432.65,-290.42 436.15,-280.42 429.15,-280.42"/>
</g>
<!-- mount2&#45;&gt;fs_params -->
<g id="edge11" class="edge">
<title>mount2-&gt;fs_params</title>
<path fill="none" stroke="black" d="M171.11,-132.79C171.11,-132.79 171.11,-107.64 171.11,-107.64"/>
<polygon fill="black" stroke="black" points="174.61,-107.64 171.11,-97.64 167.61,-107.64 174.61,-107.64"/>
</g>
<!-- mount2&#45;&gt;static -->
<g id="edge13" class="edge">
<title>mount2-&gt;static</title>
<path fill="none" stroke="black" d="M179.05,-201.39C179.05,-223.07 179.05,-247 179.05,-247 179.05,-247 406.71,-247 406.71,-247 406.71,-247 406.71,-280.59 406.71,-280.59"/>
<polygon fill="black" stroke="black" points="403.21,-280.59 406.71,-290.59 410.21,-280.59 403.21,-280.59"/>
</g>
<!-- write -->
<g id="node12" class="node">
<title>write</title>
<polygon fill="#ce93d8" stroke="black" points="644.63,-338.2 551.37,-338.2 551.37,-302.2 644.63,-302.2 644.63,-338.2"/>
<text xml:space="preserve" text-anchor="middle" x="598" y="-323.2" font-family="Arial" font-size="10.00">backend-1 пишет</text>
<text xml:space="preserve" text-anchor="middle" x="598" y="-311.2" font-family="Arial" font-size="10.00">файл test.txt</text>
</g>
<!-- write&#45;&gt;mount1 -->
<g id="edge14" class="edge">
<title>write-&gt;mount1</title>
<path fill="none" stroke="black" d="M601.02,-301.7C601.02,-266.43 601.02,-193 601.02,-193 601.02,-193 368.9,-193 368.9,-193"/>
<polygon fill="black" stroke="black" points="368.9,-189.5 358.9,-193 368.9,-196.5 368.9,-189.5"/>
</g>
<!-- read -->
<g id="node13" class="node">
<title>read</title>
<polygon fill="#ce93d8" stroke="black" points="557.41,-189 458.59,-189 458.59,-145 557.41,-145 557.41,-189"/>
<text xml:space="preserve" text-anchor="middle" x="508" y="-176" font-family="Arial" font-size="10.00">backend-2 читает</text>
<text xml:space="preserve" text-anchor="middle" x="508" y="-164" font-family="Arial" font-size="10.00">файл test.txt</text>
<text xml:space="preserve" text-anchor="middle" x="508" y="-152" font-family="Arial" font-size="10.00">ВИДИТ ТО ЖЕ</text>
</g>
<!-- write&#45;&gt;read -->
<g id="edge16" class="edge">
<title>write-&gt;read</title>
<path fill="none" stroke="#7b1fa2" stroke-width="2" d="M537.95,-320C537.95,-320 526.3,-320 526.3,-320 526.3,-320 526.3,-202.27 526.3,-202.27"/>
<polygon fill="#7b1fa2" stroke="#7b1fa2" stroke-width="2" points="537.95,-323.5 547.95,-320 537.95,-316.5 537.95,-323.5"/>
<polygon fill="#7b1fa2" stroke="#7b1fa2" stroke-width="2" points="529.8,-202.27 526.3,-192.27 522.8,-202.27 529.8,-202.27"/>
<text xml:space="preserve" text-anchor="middle" x="600.25" y="-261.6" font-family="Times,serif" font-size="14.00">один и тот же</text>
<text xml:space="preserve" text-anchor="middle" x="600.25" y="-244.8" font-family="Times,serif" font-size="14.00">файл</text>
</g>
<!-- read&#45;&gt;mount2 -->
<g id="edge15" class="edge">
<title>read-&gt;mount2</title>
<path fill="none" stroke="black" d="M508,-144.65C508,-130.55 508,-115 508,-115 508,-115 188.02,-115 188.02,-115 188.02,-115 188.02,-121.09 188.02,-121.09"/>
<polygon fill="black" stroke="black" points="184.52,-121.09 188.02,-131.09 191.52,-121.09 184.52,-121.09"/>
</g>
</g>
</svg>