<svg width="1292pt" height="336pt" viewBox="0.00 0.00 1292.00 336.00" xmlns="http://www.w3.org/2000/svg" xmlns:xlink="http://www.w3.org/1999/xlink">
<g id="graph0" class="graph" transform="scale(1 1) rotate(0) translate(4 331.6)">
<title>LoadBalancing</title>
<polygon fill="white" stroke="none" points="-4,4 -4,-331.6 1288,-331.6 1288,4 -4,4"/>
<text xml:space="preserve" text-anchor="middle" x="642" y="-307.4" font-family="Arial" font-size="18.00">Механизм балансировки и отказоустойчивости</text>
<g id="clust1" class="cluster">
<title>cluster_vrrp</title>
<polygon fill="#fce8e6" stroke="black" points="8,-8 8,-290 399,-290 399,-8 8,-8"/>
<text xml:space="preserve" text-anchor="middle" x="203.5" y="-274.3" font-family="Arial" font-size="13.00">VRRP (Keepalived) — Отказоустойчивость IP</text>
</g>
<g id="clust2" class="cluster">
<title>cluster_nginx_lb</title>
<polygon fill="#e6f4ea" stroke="black" points="407,-24 407,-278 1069,-278 1069,-24 407,-24"/>
<text xml:space="preserve" text-anchor="middle" x="738" y="-262.3" font-family="Arial" font-size="13.00">Nginx — Балансировка нагрузки</text>
</g>
<g id="clust3" class="cluster">
<title>cluster_failover</title>
<polygon fill="#fff3e0" stroke="black" points="1100,-20 1100,-268 1276,-268 1276,-20 1100,-20"/>
<text xml:space="preserve" text-anchor="middle" x="1188" y="-252.3" font-family="Arial" font-size="13.00">Отказ backend-1</text>
</g>
<!-- master_state -->
<g id="node1" class="node">
<title>master_state</title>
<polygon fill="#ef9a9a" stroke="black" points="167.82,-258.4 16.18,-258.4 16.18,-178.4 167.82,-178.4 167.82,-258.4"/>
<text xml:space="preserve" text-anchor="middle" x="92" y="-245.4" font-family="Arial" font-size="10.00">nginx-1 (MASTER)</text>
<text xml:space="preserve" text-anchor="middle" x="92" y="-233.4" font-family="Arial" font-size="10.00">priority=100</text>
<text xml:space="preserve" text-anchor="middle" x="92" y="-221.4" font-family="Arial" font-size="10.00">Владеет VIP 192.168.122.100</text>
<text xml:space="preserve" text-anchor="middle" x="92" y="-209.4" font-family="Arial" font-size="10.00">Шлёт VRRP Advertisement</text>
<text xml:space="preserve" text-anchor="middle" x="92" y="-197.4" font-family="Arial" font-size="10.00">каждые 1 сек</text>
<text xml:space="preserve" text-anchor="middle" x="92" y="-185.4" font-family="Arial" font-size="10.00">на multicast 224.0.0.18</text>
</g>
<!-- backup_state -->
<g id="node2" class="node">
<title>backup_state</title>
<polygon fill="#ffcdd2" stroke="black" points="229.08,-84 76.92,-84 76.92,-16 229.08,-16 229.08,-84"/>
<text xml:space="preserve" text-anchor="middle" x="153" y="-71" font-family="Arial" font-size="10.00">nginx-2 (BACKUP)</text>
<text xml:space="preserve" text-anchor="middle" x="153" y="-59" font-family="Arial" font-size="10.00">priority=90</text>
<text xml:space="preserve" text-anchor="middle" x="153" y="-47" font-family="Arial" font-size="10.00">Слушает VRRP Advertisement</text>
<text xml:space="preserve" text-anchor="middle" x="153" y="-35" font-family="Arial" font-size="10.00">VIP не назначен</text>
<text xml:space="preserve" text-anchor="middle" x="153" y="-23" font-family="Arial" font-size="10.00">Ожидает отказа MASTER</text>
</g>
<!-- master_state&#45;&gt;backup_state -->
<g id="edge1" class="edge">
<title>master_state-&gt;backup_state</title>
<path fill="none" stroke="#ea4335" stroke-width="2" d="M122.37,-178.06C122.37,-178.06 122.37,-97.35 122.37,-97.35"/>
<polygon fill="#ea4335" stroke="#ea4335" stroke-width="2" points="125.87,-97.35 122.37,-87.35 118.87,-97.35 125.87,-97.35"/>
<text xml:space="preserve" text-anchor="middle" x="112.5" y="-135.4" font-family="Times,serif" font-size="14.00">Heartbeat</text>
<text xml:space="preserve" text-anchor="middle" x="112.5" y="-118.6" font-family="Times,serif" font-size="14.00">каждые 1 сек</text>
</g>
<!-- fail -->
<g id="node3" class="node">
<title>fail</title>
<polygon fill="#ffebee" stroke="black" points="333.81,-210.94 333.81,-225.86 302.29,-236.4 257.71,-236.4 226.19,-225.86 226.19,-210.94 257.71,-200.4 302.29,-200.4 333.81,-210.94"/>
<text xml:space="preserve" text-anchor="middle" x="280" y="-215.4" font-family="Arial" font-size="10.00">MASTER упал</text>
</g>
<!-- fail&#45;&gt;backup_state -->
<g id="edge2" class="edge">
<title>fail-&gt;backup_state</title>
<path fill="none" stroke="#ea4335" stroke-width="2" stroke-dasharray="5,2" d="M226.03,-218C210.18,-218 197.01,-218 197.01,-218 197.01,-218 197.01,-97.43 197.01,-97.43"/>
<polygon fill="#ea4335" stroke="#ea4335" stroke-width="2" points="200.51,-97.43 197.01,-87.43 193.51,-97.43 200.51,-97.43"/>
<text xml:space="preserve" text-anchor="middle" x="302.68" y="-143.8" font-family="Times,serif" font-size="14.00">Нет heartbeat 3+ сек</text>
<text xml:space="preserve" text-anchor="middle" x="302.68" y="-127" font-family="Times,serif" font-size="14.00">→ BACKUP захватывает VIP</text>
<text xml:space="preserve" text-anchor="middle" x="302.68" y="-110.2" font-family="Times,serif" font-size="14.00">→ Становится MASTER</text>
</g>
<!-- upstream -->
<g id="node4" class="node">
<title>upstream</title>
<polygon fill="#c8e6c9" stroke="black" points="809.5,-246.4 660.5,-246.4 660.5,-190.4 815.5,-190.4 815.5,-240.4 809.5,-246.4"/>
<polyline fill="none" stroke="black" points="809.5,-246.4 809.5,-240.4"/>
<polyline fill="none" stroke="black" points="815.5,-240.4 809.5,-240.4"/>
<text xml:space="preserve" text-anchor="middle" x="738" y="-233.4" font-family="Arial" font-size="10.00">upstream backend {</text>
<text xml:space="preserve" text-anchor="middle" x="738" y="-221.4" font-family="Arial" font-size="10.00">  server 192.168.122.238:8000;</text>
<text xml:space="preserve" text-anchor="middle" x="738" y="-209.4" font-family="Arial" font-size="10.00">  server 192.168.122.75:8000;</text>
<text xml:space="preserve" text-anchor="middle" x="738" y="-197.4" font-family="Arial" font-size="10.00">}</text>
</g>
<!-- req1 -->
<g id="node5" class="node">
<title>req1</title>
<polygon fill="#a5d6a7" stroke="black" points="533.14,-68 414.86,-68 414.86,-32 533.14,-32 533.14,-68"/>
<text xml:space="preserve" text-anchor="middle" x="474" y="-47" font-family="Arial" font-size="10.00">Запрос 1 → backend-1</text>
</g>
<!-- upstream&#45;&gt;req1 -->
<g id="edge3" class="edge">
<title>upstream-&gt;req1</title>
<path fill="none" stroke="black" d="M660.22,-195C582.35,-195 474,-195 474,-195 474,-195 474,-79.88 474,-79.88"/>
<polygon fill="black" stroke="black" points="477.5,-79.88 474,-69.88 470.5,-79.88 477.5,-79.88"/>
<text xml:space="preserve" text-anchor="middle" x="547.83" y="-127" font-family="Times,serif" font-size="14.00">50%</text>
</g>
<!-- req2 -->
<g id="node6" class="node">
<title>req2</title>
<polygon fill="#a5d6a7" stroke="black" points="709.14,-68 590.86,-68 590.86,-32 709.14,-32 709.14,-68"/>
<text xml:space="preserve" text-anchor="middle" x="650" y="-47" font-family="Arial" font-size="10.00">Запрос 2 → backend-2</text>
</g>
<!-- upstream&#45;&gt;req2 -->
<g id="edge4" class="edge">
<title>upstream-&gt;req2</title>
<path fill="none" stroke="black" d="M684.82,-190.21C684.82,-190.21 684.82,-79.89 684.82,-79.89"/>
<polygon fill="black" stroke="black" points="688.32,-79.89 684.82,-69.89 681.32,-79.89 688.32,-79.89"/>
<text xml:space="preserve" text-anchor="middle" x="698.83" y="-127" font-family="Times,serif" font-size="14.00">50%</text>
</g>
<!-- req3 -->
<g id="node7" class="node">
<title>req3</title>
<polygon fill="#a5d6a7" stroke="black" points="885.14,-68 766.86,-68 766.86,-32 885.14,-32 885.14,-68"/>
<text xml:space="preserve" text-anchor="middle" x="826" y="-47" font-family="Arial" font-size="10.00">Запрос 3 → backend-1</text>
</g>
<!-- upstream&#45;&gt;req3 -->
<g id="edge5" class="edge">
<title>upstream-&gt;req3</title>
<path fill="none" stroke="black" d="M791.18,-190.21C791.18,-190.21 791.18,-79.89 791.18,-79.89"/>
<polygon fill="black" stroke="black" points="794.68,-79.89 791.18,-69.89 787.68,-79.89 794.68,-79.89"/>
</g>
<!-- req4 -->
<g id="node8" class="node">
<title>req4</title>
<polygon fill="#a5d6a7" stroke="black" points="1061.14,-68 942.86,-68 942.86,-32 1061.14,-32 1061.14,-68"/>
<text xml:space="preserve" text-anchor="middle" x="1002" y="-47" font-family="Arial" font-size="10.00">Запрос 4 → backend-2</text>
</g>
<!-- upstream&#45;&gt;req4 -->
<g id="edge6" class="edge">
<title>upstream-&gt;req4</title>
<path fill="none" stroke="black" d="M815.78,-195C893.65,-195 1002,-195 1002,-195 1002,-195 1002,-79.88 1002,-79.88"/>
<polygon fill="black" stroke="black" points="1005.5,-79.88 1002,-69.88 998.5,-79.88 1005.5,-79.88"/>
</g>
<!-- be1_down -->
<g id="node9" class="node">
<title>be1_down</title>
<polygon fill="#ef9a9a" stroke="black" points="1215.41,-236.4 1116.59,-236.4 1116.59,-200.4 1215.41,-200.4 1215.41,-236.4"/>
<text xml:space="preserve" text-anchor="middle" x="1166" y="-215.4" font-family="Arial" font-size="10.00">backend-1 ✗ УПАЛ</text>
</g>
<!-- be2_up -->
<g id="node10" class="node">
<title>be2_up</title>
<polygon fill="#a5d6a7" stroke="black" stroke-width="2" points="1213.18,-72 1118.82,-72 1118.82,-28 1213.18,-28 1213.18,-72"/>
<text xml:space="preserve" text-anchor="middle" x="1166" y="-59" font-family="Arial" font-size="10.00">backend-2 ✓</text>
<text xml:space="preserve" text-anchor="middle" x="1166" y="-47" font-family="Arial" font-size="10.00">Принимает 100%</text>
<text xml:space="preserve" text-anchor="middle" x="1166" y="-35" font-family="Arial" font-size="10.00">нагрузки</text>
</g>
<!-- be1_down&#45;&gt;be2_up -->
<g id="edge7" class="edge">
<title>be1_down-&gt;be2_up</title>
<path fill="none" stroke="#fb8c00" stroke-width="2" d="M1166,-200.06C1166,-200.06 1166,-85.89 1166,-85.89"/>
<polygon fill="#fb8c00" stroke="#fb8c00" stroke-width="2" points="1169.5,-85.89 1166,-75.89 1162.5,-85.89 1169.5,-85.89"/>
<text xml:space="preserve" text-anchor="middle" x="1216.75" y="-143.8" font-family="Times,serif" font-size="14.00">Nginx исключает</text>
<text xml:space="preserve" text-anchor="middle" x="1216.75" y="-127" font-family="Times,serif" font-size="14.00">backend-1 из</text>
<text xml:space="preserve" text-anchor="middle" x="1216.75" y="-110.2" font-family="Times,serif" font-size="14.00">upstream</text>
</g>
</g>
</svg>