<svg width="685pt" height="365pt" viewBox="0.00 0.00 685.00 365.00" xmlns="http://www.w3.org/2000/svg" xmlns:xlink="http://www.w3.org/1999/xlink">
<g id="graph0" class="graph" transform="scale(1 1) rotate(0) translate(4 361.4)">
<title>PostgreSQL</title>
<polygon fill="white" stroke="none" points="-4,4 -4,-361.4 681,-361.4 681,4 -4,4"/>
<text xml:space="preserve" text-anchor="middle" x="338.5" y="-337.2" font-family="Arial" font-size="18.00">Конфигурация базы данных</text>
<g id="clust1" class="cluster">
<title>cluster_config</title>
<polygon fill="#f3e5f5" stroke="black" points="8,-8 8,-103.6 349,-103.6 349,-8 8,-8"/>
<text xml:space="preserve" text-anchor="middle" x="178.5" y="-87.9" font-family="Arial" font-size="13.00">Конфигурация</text>
</g>
<g id="clust2" class="cluster">
<title>cluster_db_objects</title>
<polygon fill="#f3e5f5" stroke="black" points="383,-8 383,-103.6 669,-103.6 669,-8 383,-8"/>
<text xml:space="preserve" text-anchor="middle" x="526" y="-87.9" font-family="Arial" font-size="13.00">Объекты базы данных</text>
</g>
<g id="clust3" class="cluster">
<title>cluster_clients</title>
<polygon fill="#fff3e0" stroke="black" points="253,-236.2 253,-319.8 467,-319.8 467,-236.2 253,-236.2"/>
<text xml:space="preserve" text-anchor="middle" x="360" y="-304.1" font-family="Arial" font-size="13.00">Клиенты</text>
</g>
<!-- pg_server -->
<g id="node1" class="node">
<title>pg_server</title>
<path fill="#ce93d8" stroke="black" d="M419.26,-170.6C419.26,-172.81 392.25,-174.6 359,-174.6 325.75,-174.6 298.74,-172.81 298.74,-170.6 298.74,-170.6 298.74,-134.6 298.74,-134.6 298.74,-132.39 325.75,-130.6 359,-130.6 392.25,-130.6 419.26,-132.39 419.26,-134.6 419.26,-134.6 419.26,-170.6 419.26,-170.6"/>
<path fill="none" stroke="black" d="M419.26,-170.6C419.26,-168.39 392.25,-166.6 359,-166.6 325.75,-166.6 298.74,-168.39 298.74,-170.6"/>
<text xml:space="preserve" text-anchor="middle" x="359" y="-155.6" font-family="Arial" font-size="10.00">db-1 (192.168.122.189)</text>
<text xml:space="preserve" text-anchor="middle" x="359" y="-143.6" font-family="Arial" font-size="10.00">PostgreSQL 14</text>
</g>
<!-- listen -->
<g id="node2" class="node">
<title>listen</title>
<polygon fill="#e1bee7" stroke="black" points="155.67,-66 16.33,-66 16.33,-22 155.67,-22 155.67,-66"/>
<text xml:space="preserve" text-anchor="middle" x="86" y="-53" font-family="Arial" font-size="10.00">postgresql.conf</text>
<text xml:space="preserve" text-anchor="middle" x="86" y="-41" font-family="Arial" font-size="10.00">listen_addresses = '*'</text>
<text xml:space="preserve" text-anchor="middle" x="86" y="-29" font-family="Arial" font-size="10.00">(слушает все интерфейсы)</text>
</g>
<!-- pg_server&#45;&gt;listen -->
<g id="edge3" class="edge">
<title>pg_server-&gt;listen</title>
<path fill="none" stroke="black" d="M298.41,-153C217.98,-153 86,-153 86,-153 86,-153 86,-77.83 86,-77.83"/>
<polygon fill="black" stroke="black" points="89.5,-77.83 86,-67.83 82.5,-77.83 89.5,-77.83"/>
</g>
<!-- hba -->
<g id="node3" class="node">
<title>hba</title>
<polygon fill="#e1bee7" stroke="black" points="340.74,-72 205.26,-72 205.26,-16 340.74,-16 340.74,-72"/>
<text xml:space="preserve" text-anchor="middle" x="273" y="-59" font-family="Arial" font-size="10.00">pg_hba.conf</text>
<text xml:space="preserve" text-anchor="middle" x="273" y="-47" font-family="Arial" font-size="10.00">host all django_user</text>
<text xml:space="preserve" text-anchor="middle" x="273" y="-35" font-family="Arial" font-size="10.00">192.168.122.0/24 md5</text>
<text xml:space="preserve" text-anchor="middle" x="273" y="-23" font-family="Arial" font-size="10.00">(доступ из сети backend)</text>
</g>
<!-- pg_server&#45;&gt;hba -->
<g id="edge4" class="edge">
<title>pg_server-&gt;hba</title>
<path fill="none" stroke="black" d="M319.74,-130.62C319.74,-130.62 319.74,-83.66 319.74,-83.66"/>
<polygon fill="black" stroke="black" points="323.24,-83.66 319.74,-73.66 316.24,-83.66 323.24,-83.66"/>
</g>
<!-- database -->
<g id="node4" class="node">
<title>database</title>
<path fill="#e1bee7" stroke="black" d="M499.41,-62C499.41,-64.21 475.02,-66 445,-66 414.98,-66 390.59,-64.21 390.59,-62 390.59,-62 390.59,-26 390.59,-26 390.59,-23.79 414.98,-22 445,-22 475.02,-22 499.41,-23.79 499.41,-26 499.41,-26 499.41,-62 499.41,-62"/>
<path fill="none" stroke="black" d="M499.41,-62C499.41,-59.79 475.02,-58 445,-58 414.98,-58 390.59,-59.79 390.59,-62"/>
<text xml:space="preserve" text-anchor="middle" x="445" y="-47" font-family="Arial" font-size="10.00">django_db</text>
<text xml:space="preserve" text-anchor="middle" x="445" y="-35" font-family="Arial" font-size="10.00">База данных Django</text>
</g>
<!-- pg_server&#45;&gt;database -->
<g id="edge5" class="edge">
<title>pg_server-&gt;database</title>
<path fill="none" stroke="black" d="M404.93,-131.14C404.93,-131.14 404.93,-76.92 404.93,-76.92"/>
<polygon fill="black" stroke="black" points="408.43,-76.92 404.93,-66.92 401.43,-76.92 408.43,-76.92"/>
</g>
<!-- user -->
<g id="node5" class="node">
<title>user</title>
<polygon fill="#e1bee7" stroke="black" points="660.81,-72 549.19,-72 549.19,-16 660.81,-16 660.81,-72"/>
<text xml:space="preserve" text-anchor="middle" x="605" y="-59" font-family="Arial" font-size="10.00">django_user</text>
<text xml:space="preserve" text-anchor="middle" x="605" y="-47" font-family="Arial" font-size="10.00">Пользователь БД</text>
<text xml:space="preserve" text-anchor="middle" x="605" y="-35" font-family="Arial" font-size="10.00">Пароль: django_pass</text>
<text xml:space="preserve" text-anchor="middle" x="605" y="-23" font-family="Arial" font-size="10.00">Права: ALL</text>
</g>
<!-- pg_server&#45;&gt;user -->
<g id="edge6" class="edge">
<title>pg_server-&gt;user</title>
<path fill="none" stroke="black" d="M419.49,-153C492.33,-153 605,-153 605,-153 605,-153 605,-83.87 605,-83.87"/>
<polygon fill="black" stroke="black" points="608.5,-83.87 605,-73.87 601.5,-83.87 608.5,-83.87"/>
</g>
<!-- be1 -->
<g id="node6" class="node">
<title>be1</title>
<polygon fill="#ffe0b2" stroke="black" points="334.9,-288.2 261.1,-288.2 261.1,-244.2 334.9,-244.2 334.9,-288.2"/>
<text xml:space="preserve" text-anchor="middle" x="298" y="-275.2" font-family="Arial" font-size="10.00">backend-1</text>
<text xml:space="preserve" text-anchor="middle" x="298" y="-263.2" font-family="Arial" font-size="10.00">Django ORM</text>
<text xml:space="preserve" text-anchor="middle" x="298" y="-251.2" font-family="Arial" font-size="10.00">psycopg2</text>
</g>
<!-- be1&#45;&gt;pg_server -->
<g id="edge1" class="edge">
<title>be1-&gt;pg_server</title>
<path fill="none" stroke="#9c27b0" d="M316.82,-243.76C316.82,-243.76 316.82,-185.74 316.82,-185.74"/>
<polygon fill="#9c27b0" stroke="#9c27b0" points="320.32,-185.74 316.82,-175.74 313.32,-185.74 320.32,-185.74"/>
<text xml:space="preserve" text-anchor="middle" x="332.06" y="-213.6" font-family="Times,serif" font-size="14.00">SQL-запросы</text>
<text xml:space="preserve" text-anchor="middle" x="332.06" y="-196.8" font-family="Times,serif" font-size="14.00">по TCP/5432</text>
</g>
<!-- be2 -->
<g id="node7" class="node">
<title>be2</title>
<polygon fill="#ffe0b2" stroke="black" points="458.9,-288.2 385.1,-288.2 385.1,-244.2 458.9,-244.2 458.9,-288.2"/>
<text xml:space="preserve" text-anchor="middle" x="422" y="-275.2" font-family="Arial" font-size="10.00">backend-2</text>
<text xml:space="preserve" text-anchor="middle" x="422" y="-263.2" font-family="Arial" font-size="10.00">Django ORM</text>
<text xml:space="preserve" text-anchor="middle" x="422" y="-251.2" font-family="Arial" font-size="10.00">psycopg2</text>
</g>
<!-- be2&#45;&gt;pg_server -->
<g id="edge2" class="edge">
<title>be2-&gt;pg_server</title>
<path fill="none" stroke="#9c27b0" d="M402.18,-243.76C402.18,-243.76 402.18,-185.74 402.18,-185.74"/>
<polygon fill="#9c27b0" stroke="#9c27b0" points="405.68,-185.74 402.18,-175.74 398.68,-185.74 405.68,-185.74"/>
<text xml:space="preserve" text-anchor="middle" x="467.06" y="-213.6" font-family="Times,serif" font-size="14.00">SQL-запросы</text>
<text xml:space="preserve" text-anchor="middle" x="467.06" y="-196.8" font-family="Times,serif" font-size="14.00">по TCP/5432</text>
</g>
</g>
</svg>