<svg width="1212pt" height="201pt" viewBox="0.00 0.00 1212.00 201.00" xmlns="http://www.w3.org/2000/svg" xmlns:xlink="http://www.w3.org/1999/xlink">
<g id="graph0" class="graph" transform="scale(1 1) rotate(0) translate(4 197)">
<title>RealWorld</title>
<polygon fill="white" stroke="none" points="-4,4 -4,-197 1207.71,-197 1207.71,4 -4,4"/>
<text xml:space="preserve" text-anchor="middle" x="601.86" y="-172.8" font-family="Arial" font-size="18.00">Где применяются такие системы</text>
<!-- title -->
<g id="node1" class="node">
<title>title</title>
<text xml:space="preserve" text-anchor="middle" x="596.94" y="-145" font-family="Arial" font-size="16.00">Типовые сценарии использования</text>
<text xml:space="preserve" text-anchor="middle" x="596.94" y="-125.8" font-family="Arial" font-size="16.00">отказоустойчивых инфраструктур</text>
</g>
<!-- ecommerce -->
<g id="node2" class="node">
<title>ecommerce</title>
<polygon fill="#fce8e6" stroke="black" points="149.88,-74 0,-74 0,0 149.88,0 149.88,-74"/>
<text xml:space="preserve" text-anchor="middle" x="74.94" y="-60.1" font-family="Arial" font-size="11.00">E-commerce</text>
<text xml:space="preserve" text-anchor="middle" x="74.94" y="-46.9" font-family="Arial" font-size="11.00">Wildberries, Ozon, Amazon</text>
<text xml:space="preserve" text-anchor="middle" x="74.94" y="-33.7" font-family="Arial" font-size="11.00">Пиковые нагрузки</text>
<text xml:space="preserve" text-anchor="middle" x="74.94" y="-20.5" font-family="Arial" font-size="11.00">в Чёрную пятницу</text>
<text xml:space="preserve" text-anchor="middle" x="74.94" y="-7.3" font-family="Arial" font-size="11.00">Нельзя терять заказы</text>
</g>
<!-- title&#45;&gt;ecommerce -->
<g id="edge1" class="edge">
<title>title-&gt;ecommerce</title>
<path fill="none" stroke="black" d="M458.08,-148C303.44,-148 74.94,-148 74.94,-148 74.94,-148 74.94,-85.78 74.94,-85.78"/>
<polygon fill="black" stroke="black" points="78.44,-85.78 74.94,-75.78 71.44,-85.78 78.44,-85.78"/>
</g>
<!-- banks -->
<g id="node3" class="node">
<title>banks</title>
<polygon fill="#fce8e6" stroke="black" points="361.7,-74 208.18,-74 208.18,0 361.7,0 361.7,-74"/>
<text xml:space="preserve" text-anchor="middle" x="284.94" y="-60.1" font-family="Arial" font-size="11.00">Банки</text>
<text xml:space="preserve" text-anchor="middle" x="284.94" y="-46.9" font-family="Arial" font-size="11.00">Сбер, Тинькофф, Revolut</text>
<text xml:space="preserve" text-anchor="middle" x="284.94" y="-33.7" font-family="Arial" font-size="11.00">Обработка транзакций</text>
<text xml:space="preserve" text-anchor="middle" x="284.94" y="-20.5" font-family="Arial" font-size="11.00">99.99% доступность</text>
<text xml:space="preserve" text-anchor="middle" x="284.94" y="-7.3" font-family="Arial" font-size="11.00">Регуляторные требования</text>
</g>
<!-- title&#45;&gt;banks -->
<g id="edge2" class="edge">
<title>title-&gt;banks</title>
<path fill="none" stroke="black" d="M457.82,-132C374.62,-132 284.94,-132 284.94,-132 284.94,-132 284.94,-85.79 284.94,-85.79"/>
<polygon fill="black" stroke="black" points="288.44,-85.79 284.94,-75.79 281.44,-85.79 288.44,-85.79"/>
</g>
<!-- gov -->
<g id="node4" class="node">
<title>gov</title>
<polygon fill="#fce8e6" stroke="black" points="566.65,-74 419.23,-74 419.23,0 566.65,0 566.65,-74"/>
<text xml:space="preserve" text-anchor="middle" x="492.94" y="-60.1" font-family="Arial" font-size="11.00">Госуслуги</text>
<text xml:space="preserve" text-anchor="middle" x="492.94" y="-46.9" font-family="Arial" font-size="11.00">Портал Госуслуг</text>
<text xml:space="preserve" text-anchor="middle" x="492.94" y="-33.7" font-family="Arial" font-size="11.00">Миллионы пользователей</text>
<text xml:space="preserve" text-anchor="middle" x="492.94" y="-20.5" font-family="Arial" font-size="11.00">Пики при подаче</text>
<text xml:space="preserve" text-anchor="middle" x="492.94" y="-7.3" font-family="Arial" font-size="11.00">заявлений</text>
</g>
<!-- title&#45;&gt;gov -->
<g id="edge3" class="edge">
<title>title-&gt;gov</title>
<path fill="none" stroke="black" d="M512.23,-117.04C512.23,-117.04 512.23,-85.77 512.23,-85.77"/>
<polygon fill="black" stroke="black" points="515.73,-85.77 512.23,-75.77 508.73,-85.77 515.73,-85.77"/>
</g>
<!-- saas -->
<g id="node5" class="node">
<title>saas</title>
<polygon fill="#fce8e6" stroke="black" points="777.7,-74 624.18,-74 624.18,0 777.7,0 777.7,-74"/>
<text xml:space="preserve" text-anchor="middle" x="700.94" y="-60.1" font-family="Arial" font-size="11.00">SaaS-платформы</text>
<text xml:space="preserve" text-anchor="middle" x="700.94" y="-46.9" font-family="Arial" font-size="11.00">Salesforce, Slack, Notion</text>
<text xml:space="preserve" text-anchor="middle" x="700.94" y="-33.7" font-family="Arial" font-size="11.00">Круглосуточная работа</text>
<text xml:space="preserve" text-anchor="middle" x="700.94" y="-20.5" font-family="Arial" font-size="11.00">Глобальные пользователи</text>
<text xml:space="preserve" text-anchor="middle" x="700.94" y="-7.3" font-family="Arial" font-size="11.00">SLA 99.9%+</text>
</g>
<!-- title&#45;&gt;saas -->
<g id="edge4" class="edge">
<title>title-&gt;saas</title>
<path fill="none" stroke="black" d="M680.13,-117.04C680.13,-117.04 680.13,-85.77 680.13,-85.77"/>
<polygon fill="black" stroke="black" points="683.63,-85.77 680.13,-75.77 676.63,-85.77 683.63,-85.77"/>
</g>
<!-- hosting -->
<g id="node6" class="node">
<title>hosting</title>
<polygon fill="#fce8e6" stroke="black" points="992.23,-74 835.65,-74 835.65,0 992.23,0 992.23,-74"/>
<text xml:space="preserve" text-anchor="middle" x="913.94" y="-60.1" font-family="Arial" font-size="11.00">Хостинг-провайдеры</text>
<text xml:space="preserve" text-anchor="middle" x="913.94" y="-46.9" font-family="Arial" font-size="11.00">Selectel, DataLine, AWS</text>
<text xml:space="preserve" text-anchor="middle" x="913.94" y="-33.7" font-family="Arial" font-size="11.00">Тысячи клиентских сайтов</text>
<text xml:space="preserve" text-anchor="middle" x="913.94" y="-20.5" font-family="Arial" font-size="11.00">Общее хранилище</text>
<text xml:space="preserve" text-anchor="middle" x="913.94" y="-7.3" font-family="Arial" font-size="11.00">(GFS2/OCFS2)</text>
</g>
<!-- title&#45;&gt;hosting -->
<g id="edge5" class="edge">
<title>title-&gt;hosting</title>
<path fill="none" stroke="black" d="M735.98,-132C821.15,-132 913.94,-132 913.94,-132 913.94,-132 913.94,-85.79 913.94,-85.79"/>
<polygon fill="black" stroke="black" points="917.44,-85.79 913.94,-75.79 910.44,-85.79 917.44,-85.79"/>
</g>
<!-- media -->
<g id="node7" class="node">
<title>media</title>
<polygon fill="#fce8e6" stroke="black" points="1203.71,-74 1050.17,-74 1050.17,0 1203.71,0 1203.71,-74"/>
<text xml:space="preserve" text-anchor="middle" x="1126.94" y="-60.1" font-family="Arial" font-size="11.00">Медиа и соцсети</text>
<text xml:space="preserve" text-anchor="middle" x="1126.94" y="-46.9" font-family="Arial" font-size="11.00">Instagram, Pinterest, TikTok</text>
<text xml:space="preserve" text-anchor="middle" x="1126.94" y="-33.7" font-family="Arial" font-size="11.00">Миллиарды запросов</text>
<text xml:space="preserve" text-anchor="middle" x="1126.94" y="-20.5" font-family="Arial" font-size="11.00">Горизонтальное</text>
<text xml:space="preserve" text-anchor="middle" x="1126.94" y="-7.3" font-family="Arial" font-size="11.00">масштабирование</text>
</g>
<!-- title&#45;&gt;media -->
<g id="edge6" class="edge">
<title>title-&gt;media</title>
<path fill="none" stroke="black" d="M735.84,-148C892.88,-148 1126.94,-148 1126.94,-148 1126.94,-148 1126.94,-85.78 1126.94,-85.78"/>
<polygon fill="black" stroke="black" points="1130.44,-85.78 1126.94,-75.78 1123.44,-85.78 1130.44,-85.78"/>
</g>
</g>
</svg>